<svg xmlns="http://www.w3.org/2000/svg" xmlns:xlink="http://www.w3.org/1999/xlink" width="105" zoomAndPan="magnify" viewBox="0 0 78.75 52.499999" height="70" preserveAspectRatio="xMidYMid meet" version="1.0"><defs><g/><clipPath id="efb85f023a"><path d="M 0.246094 0 L 78.253906 0 L 78.253906 52.003906 L 0.246094 52.003906 Z M 0.246094 0 " clip-rule="nonzero"/></clipPath><clipPath id="25ad39d4bc"><path d="M 3.851562 6.148438 L 74.648438 6.148438 L 74.648438 35.265625 L 3.851562 35.265625 Z M 3.851562 6.148438 " clip-rule="nonzero"/></clipPath></defs><g clip-path="url(#efb85f023a)"><path fill="#ffffff" d="M 0.246094 0 L 78.253906 0 L 78.253906 52.003906 L 0.246094 52.003906 Z M 0.246094 0 " fill-opacity="1" fill-rule="nonzero"/><path fill="#ffffff" d="M 0.246094 0 L 78.253906 0 L 78.253906 52.003906 L 0.246094 52.003906 Z M 0.246094 0 " fill-opacity="1" fill-rule="nonzero"/></g><g clip-path="url(#25ad39d4bc)"><path fill="#000000" d="M 3.851562 6.148438 L 74.648438 6.148438 L 74.648438 35.265625 L 3.851562 35.265625 Z M 3.851562 6.148438 " fill-opacity="1" fill-rule="nonzero"/></g><g fill="#ffffff" fill-opacity="1"><g transform="translate(16.282368, 25.992799)"><g><path d="M 9.3125 0.296875 C 7.40625 0.296875 5.867188 0.09375 4.703125 -0.3125 C 3.535156 -0.71875 2.644531 -1.28125 2.03125 -2 C 1.425781 -2.71875 1.019531 -3.546875 0.8125 -4.484375 L 7.09375 -4.484375 C 7.5625 -3.816406 8.300781 -3.484375 9.3125 -3.484375 C 10.332031 -3.484375 11.070312 -3.816406 11.53125 -4.484375 C 11.570312 -4.546875 11.59375 -4.601562 11.59375 -4.65625 C 11.59375 -4.832031 11.359375 -4.960938 10.890625 -5.046875 C 10.421875 -5.140625 9.722656 -5.207031 8.796875 -5.25 C 7.617188 -5.300781 6.382812 -5.425781 5.09375 -5.625 C 2.21875 -6.070312 0.78125 -7.226562 0.78125 -9.09375 C 0.78125 -9.25 0.789062 -9.414062 0.8125 -9.59375 C 1.019531 -10.53125 1.425781 -11.359375 2.03125 -12.078125 C 2.644531 -12.796875 3.535156 -13.359375 4.703125 -13.765625 C 5.867188 -14.179688 7.40625 -14.390625 9.3125 -14.390625 C 11.21875 -14.390625 12.753906 -14.179688 13.921875 -13.765625 C 15.085938 -13.359375 15.972656 -12.796875 16.578125 -12.078125 C 17.191406 -11.359375 17.601562 -10.53125 17.8125 -9.59375 L 11.53125 -9.59375 C 11.070312 -10.269531 10.332031 -10.609375 9.3125 -10.609375 C 8.300781 -10.609375 7.5625 -10.269531 7.09375 -9.59375 C 7.0625 -9.539062 7.046875 -9.492188 7.046875 -9.453125 C 7.046875 -9.296875 7.269531 -9.175781 7.71875 -9.09375 C 8.164062 -9.019531 8.828125 -8.957031 9.703125 -8.90625 C 10.578125 -8.851562 11.507812 -8.769531 12.5 -8.65625 C 13.488281 -8.539062 14.410156 -8.335938 15.265625 -8.046875 C 16.128906 -7.753906 16.804688 -7.320312 17.296875 -6.75 C 17.671875 -6.3125 17.859375 -5.753906 17.859375 -5.078125 C 17.859375 -4.890625 17.84375 -4.691406 17.8125 -4.484375 C 17.601562 -3.546875 17.191406 -2.71875 16.578125 -2 C 15.972656 -1.28125 15.085938 -0.71875 13.921875 -0.3125 C 12.753906 0.09375 11.21875 0.296875 9.3125 0.296875 Z M 9.3125 0.296875 "/></g></g></g><g fill="#ffffff" fill-opacity="1"><g transform="translate(34.926738, 25.992799)"><g><path d="M 20.828125 0 L 14.921875 0 L 14.921875 -5.6875 L 7.484375 -5.6875 L 7.484375 0 L 1.578125 0 L 1.578125 -14.09375 L 7.484375 -14.09375 L 7.484375 -8.40625 L 14.921875 -8.40625 L 14.921875 -14.09375 L 20.828125 -14.09375 Z M 20.828125 0 "/></g></g></g><g fill="#000000" fill-opacity="1"><g transform="translate(19.887598, 41.619388)"><g><path d="M 1.65625 -3.609375 C 2.113281 -3.609375 2.53125 -3.488281 2.90625 -3.25 L 2.65625 -2.71875 C 2.289062 -2.9375 1.941406 -3.046875 1.609375 -3.046875 C 1.421875 -3.046875 1.273438 -3.007812 1.171875 -2.9375 C 1.066406 -2.875 1.015625 -2.78125 1.015625 -2.65625 C 1.015625 -2.539062 1.0625 -2.441406 1.15625 -2.359375 C 1.257812 -2.273438 1.378906 -2.210938 1.515625 -2.171875 C 1.660156 -2.140625 1.816406 -2.09375 1.984375 -2.03125 C 2.148438 -1.96875 2.304688 -1.90625 2.453125 -1.84375 C 2.597656 -1.78125 2.71875 -1.675781 2.8125 -1.53125 C 2.90625 -1.382812 2.953125 -1.210938 2.953125 -1.015625 C 2.953125 -0.703125 2.828125 -0.453125 2.578125 -0.265625 C 2.328125 -0.078125 2 0.015625 1.59375 0.015625 C 1.320312 0.015625 1.054688 -0.03125 0.796875 -0.125 C 0.546875 -0.226562 0.328125 -0.367188 0.140625 -0.546875 L 0.390625 -1.078125 C 0.578125 -0.898438 0.773438 -0.765625 0.984375 -0.671875 C 1.203125 -0.585938 1.410156 -0.546875 1.609375 -0.546875 C 1.816406 -0.546875 1.976562 -0.582031 2.09375 -0.65625 C 2.21875 -0.738281 2.28125 -0.847656 2.28125 -0.984375 C 2.28125 -1.109375 2.234375 -1.210938 2.140625 -1.296875 C 2.046875 -1.378906 1.925781 -1.4375 1.78125 -1.46875 C 1.632812 -1.507812 1.476562 -1.554688 1.3125 -1.609375 C 1.144531 -1.671875 0.988281 -1.734375 0.84375 -1.796875 C 0.695312 -1.859375 0.578125 -1.957031 0.484375 -2.09375 C 0.390625 -2.238281 0.34375 -2.410156 0.34375 -2.609375 C 0.34375 -2.910156 0.460938 -3.148438 0.703125 -3.328125 C 0.941406 -3.515625 1.257812 -3.609375 1.65625 -3.609375 Z M 1.65625 -3.609375 "/></g></g></g><g fill="#000000" fill-opacity="1"><g transform="translate(24.1626, 41.619388)"><g><path d="M 3.578125 0 L 2.984375 0 L 2.984375 -1.484375 L 1.078125 -1.484375 L 1.078125 0 L 0.46875 0 L 0.46875 -3.59375 L 1.078125 -3.59375 L 1.078125 -2.03125 L 2.984375 -2.03125 L 2.984375 -3.59375 L 3.578125 -3.59375 Z M 3.578125 0 "/></g></g></g><g fill="#000000" fill-opacity="1"><g transform="translate(29.303778, 41.619388)"><g><path d="M 2.78125 -0.8125 L 0.984375 -0.8125 L 0.640625 0 L 0 0 L 1.59375 -3.59375 L 2.203125 -3.59375 L 3.78125 0 L 3.125 0 Z M 2.5625 -1.34375 L 1.875 -2.9375 L 1.203125 -1.34375 Z M 2.5625 -1.34375 "/></g></g></g><g fill="#000000" fill-opacity="1"><g transform="translate(34.173314, 41.619388)"><g><path d="M 4.15625 0 L 3.546875 0 L 2.6875 -2.796875 L 1.828125 0 L 1.203125 0 L 0.015625 -3.59375 L 0.671875 -3.59375 L 1.53125 -0.671875 L 2.40625 -3.578125 L 3 -3.59375 L 3.875 -0.671875 L 4.734375 -3.59375 L 5.359375 -3.59375 Z M 4.15625 0 "/></g></g></g><g fill="#000000" fill-opacity="1"><g transform="translate(40.570194, 41.619388)"><g><path d="M 3.578125 0 L 2.984375 0 L 1.078125 -2.578125 L 1.078125 0 L 0.46875 0 L 0.46875 -3.59375 L 1.0625 -3.59375 L 2.984375 -1.015625 L 2.984375 -3.59375 L 3.578125 -3.59375 Z M 3.578125 0 "/></g></g></g><g fill="#000000" fill-opacity="1"><g transform="translate(45.7165, 41.619388)"><g/></g></g><g fill="#000000" fill-opacity="1"><g transform="translate(48.125888, 41.619388)"><g><path d="M 3.578125 0 L 2.984375 0 L 2.984375 -1.484375 L 1.078125 -1.484375 L 1.078125 0 L 0.46875 0 L 0.46875 -3.59375 L 1.078125 -3.59375 L 1.078125 -2.03125 L 2.984375 -2.03125 L 2.984375 -3.59375 L 3.578125 -3.59375 Z M 3.578125 0 "/></g></g></g><g fill="#000000" fill-opacity="1"><g transform="translate(53.267066, 41.619388)"><g><path d="M 1.078125 0 L 0.46875 0 L 0.46875 -3.59375 L 1.078125 -3.59375 Z M 1.078125 0 "/></g></g></g><g fill="#000000" fill-opacity="1"><g transform="translate(55.90197, 41.619388)"><g><path d="M 1.078125 -0.546875 L 2.625 -0.546875 L 2.625 0 L 0.46875 0 L 0.46875 -3.59375 L 1.078125 -3.59375 Z M 1.078125 -0.546875 "/></g></g></g><g fill="#000000" fill-opacity="1"><g transform="translate(59.725944, 41.619388)"><g><path d="M 1.078125 -0.546875 L 2.625 -0.546875 L 2.625 0 L 0.46875 0 L 0.46875 -3.59375 L 1.078125 -3.59375 Z M 1.078125 -0.546875 "/></g></g></g></svg>